<mxfile host="app.diagrams.net" modified="2023-10-18T08:37:11.835Z" agent="Mozilla/5.0 (X11; Linux x86_64; rv:109.0) Gecko/20100101 Firefox/118.0" etag="xNQPqeAwZt_0WjmTv_uT" version="22.0.4" type="device">
  <diagram name="Page-1" id="g-vIKoSXDD29Opg1fgPX">
    <mxGraphModel dx="1389" dy="563" grid="1" gridSize="10" guides="1" tooltips="1" connect="1" arrows="1" fold="1" page="0" pageScale="1" pageWidth="850" pageHeight="1100" math="0" shadow="0">
      <root>
        <mxCell id="0" />
        <mxCell id="1" parent="0" />
        <mxCell id="nb_ousC1VCXHv58T-TfJ-15" style="edgeStyle=orthogonalEdgeStyle;rounded=0;orthogonalLoop=1;jettySize=auto;html=1;exitX=0;exitY=0.5;exitDx=0;exitDy=0;entryX=0.5;entryY=0;entryDx=0;entryDy=0;curved=1;endArrow=none;endFill=0;" edge="1" parent="1" source="nb_ousC1VCXHv58T-TfJ-1" target="nb_ousC1VCXHv58T-TfJ-5">
          <mxGeometry relative="1" as="geometry" />
        </mxCell>
        <mxCell id="nb_ousC1VCXHv58T-TfJ-1" value="IIJU0ZFesztival" style="ellipse;whiteSpace=wrap;html=1;" vertex="1" parent="1">
          <mxGeometry x="255" y="150" width="120" height="80" as="geometry" />
        </mxCell>
        <mxCell id="nb_ousC1VCXHv58T-TfJ-2" value="Bar" style="ellipse;shape=doubleEllipse;margin=3;whiteSpace=wrap;html=1;align=center;" vertex="1" parent="1">
          <mxGeometry x="270" y="370" width="100" height="40" as="geometry" />
        </mxCell>
        <mxCell id="nb_ousC1VCXHv58T-TfJ-3" value="Resztvevo" style="ellipse;shape=doubleEllipse;margin=3;whiteSpace=wrap;html=1;align=center;" vertex="1" parent="1">
          <mxGeometry x="530" y="350" width="100" height="40" as="geometry" />
        </mxCell>
        <mxCell id="nb_ousC1VCXHv58T-TfJ-4" value="Nyelvtudas" style="ellipse;shape=doubleEllipse;margin=3;whiteSpace=wrap;html=1;align=center;" vertex="1" parent="1">
          <mxGeometry x="580" y="480" width="100" height="40" as="geometry" />
        </mxCell>
        <mxCell id="nb_ousC1VCXHv58T-TfJ-12" style="edgeStyle=orthogonalEdgeStyle;rounded=0;orthogonalLoop=1;jettySize=auto;html=1;exitX=0;exitY=1;exitDx=0;exitDy=0;entryX=0.5;entryY=0;entryDx=0;entryDy=0;curved=1;endArrow=none;endFill=0;" edge="1" parent="1" source="nb_ousC1VCXHv58T-TfJ-5" target="nb_ousC1VCXHv58T-TfJ-9">
          <mxGeometry relative="1" as="geometry" />
        </mxCell>
        <mxCell id="nb_ousC1VCXHv58T-TfJ-13" style="edgeStyle=orthogonalEdgeStyle;rounded=0;orthogonalLoop=1;jettySize=auto;html=1;exitX=0.5;exitY=1;exitDx=0;exitDy=0;entryX=0.5;entryY=0;entryDx=0;entryDy=0;curved=1;endArrow=none;endFill=0;" edge="1" parent="1" source="nb_ousC1VCXHv58T-TfJ-5" target="nb_ousC1VCXHv58T-TfJ-10">
          <mxGeometry relative="1" as="geometry" />
        </mxCell>
        <mxCell id="nb_ousC1VCXHv58T-TfJ-14" style="edgeStyle=orthogonalEdgeStyle;rounded=0;orthogonalLoop=1;jettySize=auto;html=1;exitX=1;exitY=1;exitDx=0;exitDy=0;entryX=0.5;entryY=0;entryDx=0;entryDy=0;curved=1;endArrow=none;endFill=0;" edge="1" parent="1" source="nb_ousC1VCXHv58T-TfJ-5" target="nb_ousC1VCXHv58T-TfJ-11">
          <mxGeometry relative="1" as="geometry" />
        </mxCell>
        <mxCell id="nb_ousC1VCXHv58T-TfJ-5" value="Fellepo" style="ellipse;shape=doubleEllipse;margin=3;whiteSpace=wrap;html=1;align=center;" vertex="1" parent="1">
          <mxGeometry x="50" y="380" width="100" height="40" as="geometry" />
        </mxCell>
        <mxCell id="nb_ousC1VCXHv58T-TfJ-6" value="Alkalmazott" style="ellipse;shape=doubleEllipse;margin=3;whiteSpace=wrap;html=1;align=center;" vertex="1" parent="1">
          <mxGeometry x="265" y="530" width="100" height="40" as="geometry" />
        </mxCell>
        <mxCell id="nb_ousC1VCXHv58T-TfJ-8" style="edgeStyle=orthogonalEdgeStyle;rounded=0;orthogonalLoop=1;jettySize=auto;html=1;exitX=1;exitY=0.5;exitDx=0;exitDy=0;entryX=0;entryY=0.5;entryDx=0;entryDy=0;endArrow=none;endFill=0;" edge="1" parent="1" source="nb_ousC1VCXHv58T-TfJ-7" target="nb_ousC1VCXHv58T-TfJ-5">
          <mxGeometry relative="1" as="geometry" />
        </mxCell>
        <mxCell id="nb_ousC1VCXHv58T-TfJ-7" value="FEL_ID" style="rhombus;whiteSpace=wrap;html=1;" vertex="1" parent="1">
          <mxGeometry x="-90" y="360" width="80" height="80" as="geometry" />
        </mxCell>
        <mxCell id="nb_ousC1VCXHv58T-TfJ-9" value="nev" style="ellipse;whiteSpace=wrap;html=1;align=center;" vertex="1" parent="1">
          <mxGeometry x="-50" y="490" width="100" height="40" as="geometry" />
        </mxCell>
        <mxCell id="nb_ousC1VCXHv58T-TfJ-10" value="orszag" style="ellipse;whiteSpace=wrap;html=1;align=center;" vertex="1" parent="1">
          <mxGeometry x="50" y="490" width="100" height="40" as="geometry" />
        </mxCell>
        <mxCell id="nb_ousC1VCXHv58T-TfJ-11" value="dij" style="ellipse;whiteSpace=wrap;html=1;align=center;" vertex="1" parent="1">
          <mxGeometry x="150" y="490" width="100" height="40" as="geometry" />
        </mxCell>
      </root>
    </mxGraphModel>
  </diagram>
</mxfile>
